<svg width="701" height="266" viewBox="0 0 701 266" fill="none" xmlns="http://www.w3.org/2000/svg">
<path d="M508.576 206.806C415.446 151.165 467.391 69.5788 372.433 83.6922C277.476 97.8057 290.013 191.823 195.332 303.425C100.651 415.026 15.0045 397.361 20.9204 468.454C26.8363 539.547 176.762 530.059 268.019 559.441C359.276 588.822 424.666 712.32 491.922 675.365C559.179 638.41 514.497 584.262 564.356 489.419C614.215 394.577 724.53 401.458 728.093 309.219C731.655 216.981 601.706 262.447 508.576 206.806Z" fill="#00AA58" fill-opacity="0.3"/>
<ellipse cx="487.06" cy="165.832" rx="12.2592" ry="13.0342" transform="rotate(34.3006 487.06 165.832)" fill="#00AA58" fill-opacity="0.3"/>
<ellipse cx="505.562" cy="187.657" rx="7.15121" ry="7.6033" transform="rotate(34.3006 505.562 187.657)" fill="#00AA58" fill-opacity="0.3"/>
<ellipse cx="466.871" cy="142.855" rx="7.15121" ry="7.6033" transform="rotate(34.3006 466.871 142.855)" fill="#00AA58" fill-opacity="0.3"/>
<ellipse cx="455.881" cy="120.895" rx="4.08641" ry="4.34474" transform="rotate(34.3006 455.881 120.895)" fill="#00AA58" fill-opacity="0.3"/>
<ellipse cx="471.601" cy="125.044" rx="3.06481" ry="3.25856" transform="rotate(34.3006 471.601 125.044)" fill="#00AA58" fill-opacity="0.3"/>
<ellipse cx="507.38" cy="170.489" rx="3.06481" ry="3.25856" transform="rotate(34.3006 507.38 170.489)" fill="#00AA58" fill-opacity="0.3"/>
<ellipse cx="482.359" cy="145.532" rx="3.06481" ry="3.25856" transform="rotate(34.3006 482.359 145.532)" fill="#00AA58" fill-opacity="0.3"/>
<ellipse cx="522.672" cy="200.644" rx="4.08641" ry="4.34474" transform="rotate(34.3006 522.672 200.644)" fill="#00AA58" fill-opacity="0.3"/>
</svg>
