<svg width="446" height="408" viewBox="0 0 446 408" fill="none" xmlns="http://www.w3.org/2000/svg">
<path d="M192.576 -159.194C99.4458 -214.835 151.391 -296.421 56.4334 -282.308C-38.5245 -268.194 -25.9871 -174.177 -120.668 -62.5755C-215.349 49.0257 -300.995 31.3607 -295.08 102.454C-289.164 173.547 -139.238 164.059 -47.9812 193.441C43.2758 222.822 108.666 346.32 175.922 309.365C243.179 272.41 198.497 218.262 248.356 123.419C298.215 28.5765 408.53 35.4584 412.093 -56.7805C415.655 -149.019 285.706 -103.553 192.576 -159.194Z" fill="#00AA58" fill-opacity="0.2"/>
<ellipse cx="271.272" cy="120.644" rx="12.2592" ry="13.0342" transform="rotate(34.3006 271.272 120.644)" fill="#00AA58" fill-opacity="0.2"/>
<ellipse cx="255.126" cy="142.501" rx="7.15121" ry="7.6033" transform="rotate(34.3006 255.126 142.501)" fill="#00AA58" fill-opacity="0.2"/>
<ellipse cx="243.579" cy="164.866" rx="4.08641" ry="4.34474" transform="rotate(34.3006 243.579 164.866)" fill="#00AA58" fill-opacity="0.2"/>
</svg>
