<svg width="24" height="19" viewBox="0 0 24 19" fill="none" xmlns="http://www.w3.org/2000/svg">
<line x1="3" y1="4.5" x2="9" y2="4.5" stroke="black"/>
<line x1="3" y1="8.5" x2="9" y2="8.5" stroke="black"/>
<line x1="3" y1="12.5" x2="9" y2="12.5" stroke="black"/>
<line x1="15" y1="4.5" x2="21" y2="4.5" stroke="black"/>
<line x1="15" y1="8.5" x2="21" y2="8.5" stroke="black"/>
<line x1="15" y1="12.5" x2="21" y2="12.5" stroke="black"/>
<path fill-rule="evenodd" clip-rule="evenodd" d="M0 0.75C0 0.335786 0.335786 0 0.75 0H8.24687C9.81303 0 11.1924 0.800116 11.9984 2.01401C12.8044 0.80017 14.1838 0 15.75 0H23.25C23.6642 0 24 0.335786 24 0.75V15.8125C24 16.0123 23.9203 16.2039 23.7785 16.3447C23.6368 16.4855 23.4447 16.5639 23.2449 16.5625L15.5631 16.5106C14.7604 16.5052 13.989 16.8216 13.4215 17.3892L12.5303 18.2803C12.2374 18.5732 11.7626 18.5732 11.4697 18.2803L10.568 17.3787C10.0054 16.8161 9.24235 16.5 8.4467 16.5H0.75C0.335786 16.5 0 16.1642 0 15.75V0.75ZM11.2469 4.4975C11.2455 2.84162 9.90275 1.5 8.24687 1.5H1.5V15H8.4467C9.46997 15 10.4573 15.3485 11.25 15.9798L11.2469 4.4975ZM12.75 15.982V4.5C12.75 2.84315 14.0931 1.5 15.75 1.5H22.5V15.0575L15.5732 15.0106C14.5439 15.0037 13.549 15.3496 12.75 15.982Z" fill="#24292E"/>
</svg>
