<svg width="15" height="15" viewBox="0 0 15 15" fill="none" xmlns="http://www.w3.org/2000/svg">
<path fill-rule="evenodd" clip-rule="evenodd" d="M7.74991 0.5C8.16413 0.5 8.49991 0.835786 8.49991 1.25V7H14.25C14.6642 7 15 7.33579 15 7.75C15 8.16421 14.6642 8.5 14.25 8.5H8.49991V14.25C8.49991 14.6642 8.16413 15 7.74991 15C7.3357 15 6.99991 14.6642 6.99991 14.25V8.5H1.25C0.835786 8.5 0.5 8.16421 0.5 7.75C0.5 7.33579 0.835786 7 1.25 7H6.99991V1.25C6.99991 0.835786 7.3357 0.5 7.74991 0.5Z" fill="black"/>
</svg>
